<svg width="22" height="23" viewBox="0 0 22 23" fill="none" xmlns="http://www.w3.org/2000/svg">
<path stroke="#F1B4BB" d="M3.00002 21.3174C3.6026 21.5 4.41649 21.5 5.8 21.5H16.2C17.5835 21.5 18.3974 21.5 19 21.3174M3.00002 21.3174C2.87082 21.2783 2.75133 21.2308 2.63803 21.173C2.07354 20.8854 1.6146 20.4265 1.32698 19.862C1 19.2202 1 18.3802 1 16.7V6.3C1 4.61984 1 3.77976 1.32698 3.13803C1.6146 2.57354 2.07354 2.1146 2.63803 1.82698C3.27976 1.5 4.11984 1.5 5.8 1.5H16.2C17.8802 1.5 18.7202 1.5 19.362 1.82698C19.9265 2.1146 20.3854 2.57354 20.673 3.13803C21 3.77976 21 4.61984 21 6.3V16.7C21 18.3802 21 19.2202 20.673 19.862C20.3854 20.4265 19.9265 20.8854 19.362 21.173C19.2487 21.2308 19.1292 21.2783 19 21.3174M3.00002 21.3174C3.00035 20.5081 3.00521 20.0799 3.07686 19.7196C3.39249 18.1329 4.63288 16.8925 6.21964 16.5769C6.60603 16.5 7.07069 16.5 8 16.5H14C14.9293 16.5 15.394 16.5 15.7804 16.5769C17.3671 16.8925 18.6075 18.1329 18.9231 19.7196C18.9948 20.0799 18.9996 20.5081 19 21.3174M15 9C15 11.2091 13.2091 13 11 13C8.79086 13 7 11.2091 7 9C7 6.79086 8.79086 5 11 5C13.2091 5 15 6.79086 15 9Z" stroke="#CEFF7E" stroke-width="2" stroke-linecap="round" stroke-linejoin="round"/>
</svg>
